<svg id="Layer_1" enable-background="new 0 0 512 512" height="512" viewBox="0 0 512 512" width="512" xmlns="http://www.w3.org/2000/svg"><g><path d="m167.225 19.826-47.225.174c-55.229 0-100 44.771-100 100v272c0 55.229 44.771 100 100 100l52.058-.313c-51.515-4.049-92.058-47.132-92.058-99.687v-272c0-50.9 38.029-93.767 87.225-100.174z" fill="#c6e1f2"/><g fill="#0023c4"><g><path d="m118 256c0 .058.001-.058 0 0z"/><path d="m141.233 111.948-14.091-14.091c-7.811-7.811-20.475-7.811-28.285 0s-7.811 20.475 0 28.285l14.091 14.091c2.501 2.5 2.83 6.468.766 9.228-22.863 30.56-35.545 68.336-35.714 106.377-.291 24.084 4.174 47.549 13.273 69.748 3.172 7.738 10.638 12.42 18.514 12.419 2.525 0 5.096-.481 7.578-1.499 10.22-4.189 15.109-15.871 10.92-26.092-7.061-17.226-10.52-35.701-10.285-54.414.116-29.544 9.969-58.82 27.743-82.578 13.898-18.577 11.958-45.005-4.51-61.474z"/></g><g><path d="m258 434c-.524 0 .191.003 0 0z"/><path d="m338.326 394.623c-4.189-10.22-15.867-15.111-26.092-10.92-17.223 7.061-36.48 10.507-55.234 10.297-.063-.001-.08-.001-.075-.002-29.188-.27-57.937-10.109-81.502-27.739-18.575-13.898-45.003-11.961-61.475 4.508l-14.091 14.091c-7.81 7.811-7.81 20.475 0 28.285 7.811 7.811 20.475 7.811 28.285 0l14.09-14.091c2.501-2.5 6.467-2.83 9.229-.765 30.583 22.88 68.587 35.564 106.539 35.713 23.313 0 47.89-4.466 69.406-13.285 10.22-4.19 15.11-15.871 10.92-26.092z"/><path d="m256.925 393.998c.025 0 .05.002.075.002.206-.006-.059-.004-.075-.002z"/></g><path d="m258.079 78c.194-.005-.196-.001 0 0z"/><path d="m392 0h-272c-66.168 0-120 53.832-120 120v272c0 66.168 53.832 120 120 120h272c66.168 0 120-53.832 120-120v-272c0-66.168-53.832-120-120-120zm80 392c0 44.112-35.888 80-80 80h-272c-44.112 0-80-35.888-80-80v-272c0-44.112 35.888-80 80-80h272c44.112 0 80 35.888 80 80z"/><g><path d="m415.962 98.857c-7.811-7.811-20.475-7.811-28.285 0l-14.091 14.092c-2.499 2.502-6.466 2.83-9.227.766-30.584-22.882-68.328-35.566-106.28-35.715-23.89-.212-47.67 4.27-69.664 13.285-10.221 4.188-15.11 15.87-10.921 26.091 4.188 10.219 15.866 15.111 26.091 10.921 17.227-7.061 35.677-10.516 54.415-10.297.051.001.067.001.072.002 29.181.275 58.765 10.114 82.325 27.741 8.306 6.214 18.177 9.261 28.029 9.261 12.185 0 24.339-4.665 33.444-13.771l14.091-14.091c7.81-7.81 7.81-20.474.001-28.285z"/><path d="m258.072 118.002c-.024 0-.048-.002-.072-.002-.228.007.095.005.072.002z"/></g><g><path d="m398 256c0-.058-.001.058 0 0z"/><path d="m402.871 371.767c-2.501-2.5-2.83-6.467-.765-9.228 22.861-30.558 35.543-68.328 35.712-106.367.293-24.086-4.172-47.555-13.271-69.757-4.188-10.22-15.868-15.113-26.091-10.921-10.221 4.188-15.11 15.87-10.921 26.091 7.061 17.228 10.7 35.703 10.465 54.415-.116 29.545-10.149 58.821-27.922 82.577-13.899 18.577-11.961 45.005 4.508 61.475l14.091 14.091c3.905 3.905 9.024 5.857 14.143 5.857s10.237-1.952 14.143-5.857c7.81-7.811 7.81-20.475 0-28.285z"/></g></g><path d="m256 316c-33.084 0-60-26.916-60-60s26.916-60 60-60 60 26.916 60 60-26.916 60-60 60zm0-80c-11.028 0-20 8.972-20 20s8.972 20 20 20 20-8.972 20-20-8.972-20-20-20z" fill="#ff5cf3"/></g></svg>