<svg id="Layer_1" enable-background="new 0 0 512 512" height="512" viewBox="0 0 512 512" width="512" xmlns="http://www.w3.org/2000/svg"><g><path d="m80 392v-111c0-55.229 44.771-100 100-100h-60c-55.229 0-100 44.771-100 100v111c0 55.229 44.771 100 100 100h60c-55.229 0-100-44.771-100-100z" fill="#c6e1f2"/><path d="m392 161h-96-80-96c-66.168 0-120 53.832-120 120v111c0 66.168 53.832 120 120 120h272c66.168 0 120-53.832 120-120v-111c0-66.168-53.832-120-120-120zm80 231c0 44.112-35.888 80-80 80h-272c-44.112 0-80-35.888-80-80v-111c0-44.112 35.888-80 80-80h96 80 96c44.112 0 80 35.888 80 80zm-306-116c-7.011 0-13.74 1.22-20 3.44v-24.44c0-11.046-8.954-20-20-20s-20 8.954-20 20v81c0 33.084 26.916 60 60 60s60-26.916 60-60-26.916-60-60-60zm0 80c-11.028 0-20-8.972-20-20s8.972-20 20-20 20 8.972 20 20-8.972 20-20 20zm230-121c-11.046 0-20 8.954-20 20v17.768c-9.098-4.334-19.269-6.768-30-6.768-38.598 0-70 31.402-70 70s31.402 70 70 70 70-31.402 70-70c0-.67 0-81 0-81 0-11.046-8.954-20-20-20zm-50 131c-16.542 0-30-13.458-30-30s13.458-30 30-30 30 13.458 30 30-13.458 30-30 30z" fill="#0023c4"/><path d="m279.002 128.002c-.001 0-.001 0 0 0l-26.003-.001c-30.326-.001-54.999-24.674-54.999-55.001v-7c0-14.336-11.664-26-26-26s-26 11.664-26 26v42c0 11.046-8.954 20-20 20s-20-8.954-20-20v-42c0-36.393 29.607-66 66-66s66 29.607 66 66v7c0 8.271 6.729 15 15.001 15l26.001.001c4.006 0 7.773-1.561 10.606-4.394 2.834-2.833 4.395-6.601 4.395-10.608 0-31.981 26.019-58 58-58h5.997c31.981 0 58 26.019 58 58v35c0 11.046-8.954 20-20 20s-20-8.954-20-20v-34.999c0-9.925-8.075-18-18-18h-5.997c-9.925 0-18 8.075-18 18 0 14.691-5.722 28.504-16.11 38.893-10.388 10.388-24.201 16.109-38.891 16.109z" fill="#ff5cf4"/></g></svg>