<svg width="512" height="512" viewBox="0 0 512 512" fill="none" xmlns="http://www.w3.org/2000/svg">
<path d="M434.439 110.654C401.179 45.876 334.359 0.003 255.98 0V101.329C311.458 101.333 356.573 145 356.575 200.48C356.575 255.285 311.084 302.528 255.98 302.531V512C326.626 438.383 407.933 357.458 443.509 260.572C461.298 212.121 457.979 156.5 434.439 110.654Z" fill="black"/>
<path d="M68.4917 260.572C104.067 357.458 185.374 438.383 256.02 512V302.531C200.917 302.528 155.425 255.285 155.425 200.48C155.427 145.002 200.542 101.333 256.02 101.329V0C177.641 0.003 110.821 45.876 77.5597 110.654C54.0207 156.5 50.7017 212.121 68.4917 260.572Z" fill="#4B4B4B"/>
<path d="M256 358.773C344.366 358.773 416 287.139 416 198.773C416 110.408 344.366 38.7734 256 38.7734C167.634 38.7734 96 110.408 96 198.773C96 287.139 167.634 358.773 256 358.773Z" fill="#FFDA44"/>
<path d="M221.217 66.5977H165.821C163.366 68.2757 160.962 70.0227 158.608 71.8317L144.695 198.772L158.608 325.712C160.962 327.521 163.365 329.267 165.821 330.945H221.217V66.5977Z" fill="#FF9811"/>
<path d="M96 198.772C96 250.487 120.543 296.464 158.608 325.712V71.833C120.543 101.081 96 147.057 96 198.772Z" fill="#6DA544"/>
<path d="M353.391 136.313V140.316L353.539 140.338L353.391 136.313Z" fill="#FFDA44"/>
<path d="M403.246 240.512H373.101L360.348 254.425V282.251H332.521V268.338H346.435V240.512H283.827V257.903H269.913V224.758C265.645 220.936 262.957 215.386 262.957 209.207V118.772C262.957 107.247 272.301 97.9026 283.826 97.9026V226.598H311.652L321.2 218.642C319.531 214.67 318.608 210.308 318.608 205.729V184.86H297.74V143.121H339.479C339.479 136.165 349.913 129.208 349.913 129.208C349.913 129.208 360.348 136.165 360.348 143.121V153.556V184.861C368.087 184.953 380.383 184.752 393.667 184.861C390.177 178.761 388.173 171.523 388.173 163.992C388.173 151.716 393.474 140.68 401.911 133.043C389.751 106.097 370.346 83.1216 346.18 66.5996H242.088V330.948H346.18C375.568 310.859 397.91 281.227 408.751 246.517L403.246 240.512Z" fill="#A2001D"/>
<path d="M255.929 21.7061C182.184 21.7061 114.478 69.2591 89.319 138.513C63.976 208.286 86.177 288.348 143.293 335.583C200.529 382.921 283.662 389.208 347.271 350.731C410.897 312.242 444.499 236.05 429.542 163.158C414.889 91.7701 355.517 35.1201 283.472 23.8421C274.361 22.4161 265.141 21.7061 255.929 21.7061ZM398.59 263.184C368.349 330.194 292.858 367.986 221.111 351.583C165.896 338.962 120.727 295.819 105.333 241.388C89.584 185.73 106.661 124.584 148.75 84.9631C194.284 42.0961 262.922 30.3921 320.071 56.1641C388.299 86.9311 426.042 164.308 407.722 237.009C405.459 245.986 402.37 254.739 398.59 263.184C400.132 259.739 396.502 267.811 398.59 263.184Z" fill="white"/>
</svg>
